<svg width="44" height="44" viewBox="0 0 44 44" fill="none" xmlns="http://www.w3.org/2000/svg">
<g opacity="0.4">
<path d="M31.1438 3.75851C33.5139 3.76559 35.7849 4.71025 37.4608 6.38617C39.1368 8.06209 40.0814 10.3331 40.0885 12.7032V30.5907C40.0814 32.9608 39.1368 35.2318 37.4608 36.9077C35.7849 38.5836 33.5139 39.5283 31.1438 39.5353H13.2564C10.8863 39.5283 8.61525 38.5836 6.93933 36.9077C5.26341 35.2318 4.31875 32.9608 4.31168 30.5907V12.7032C4.31875 10.3331 5.26341 8.06209 6.93933 6.38617C8.61525 4.71025 10.8863 3.76559 13.2564 3.75851H31.1438ZM31.1438 0.181213H13.2564C6.36913 0.181213 0.734375 5.81596 0.734375 12.7032V30.5907C0.734375 37.4779 6.36913 43.1126 13.2564 43.1126H31.1438C38.0311 43.1126 43.6658 37.4779 43.6658 30.5907V12.7032C43.6658 5.81596 38.0311 0.181213 31.1438 0.181213Z" fill="white"/>
<path d="M33.8268 12.7032C33.2961 12.7032 32.7773 12.5458 32.3361 12.251C31.8948 11.9561 31.5509 11.5371 31.3478 11.0468C31.1447 10.5565 31.0916 10.017 31.1951 9.49648C31.2986 8.97599 31.5542 8.49788 31.9295 8.12263C32.3047 7.74737 32.7828 7.49182 33.3033 7.38829C33.8238 7.28476 34.3633 7.33789 34.8536 7.54098C35.3439 7.74407 35.7629 8.08798 36.0578 8.52923C36.3526 8.97049 36.51 9.48926 36.51 10.0199C36.5107 10.3725 36.4419 10.7218 36.3073 11.0477C36.1727 11.3735 35.9751 11.6696 35.7258 11.919C35.4765 12.1683 35.1804 12.3659 34.8545 12.5005C34.5286 12.635 34.1793 12.7039 33.8268 12.7032Z" fill="white"/>
<path d="M22.1997 14.4914C23.6149 14.4914 24.9984 14.911 26.1751 15.6973C27.3518 16.4836 28.269 17.6011 28.8105 18.9086C29.3521 20.2161 29.4938 21.6549 29.2177 23.0429C28.9416 24.4309 28.2601 25.7059 27.2594 26.7067C26.2587 27.7074 24.9837 28.3889 23.5956 28.665C22.2076 28.9411 20.7689 28.7994 19.4614 28.2578C18.1538 27.7162 17.0363 26.7991 16.25 25.6223C15.4638 24.4456 15.0441 23.0622 15.0441 21.6469C15.0461 19.7498 15.8007 17.9309 17.1422 16.5894C18.4836 15.2479 20.3025 14.4934 22.1997 14.4914ZM22.1997 10.9141C20.0769 10.9141 18.0018 11.5435 16.2368 12.7229C14.4718 13.9022 13.0961 15.5785 12.2838 17.5396C11.4714 19.5008 11.2589 21.6588 11.673 23.7408C12.0872 25.8228 13.1094 27.7352 14.6104 29.2362C16.1114 30.7372 18.0238 31.7594 20.1058 32.1736C22.1878 32.5877 24.3458 32.3751 26.307 31.5628C28.2681 30.7505 29.9444 29.3748 31.1237 27.6098C32.3031 25.8448 32.9325 23.7697 32.9325 21.6469C32.9325 18.8004 31.8017 16.0704 29.7889 14.0576C27.7761 12.0448 25.0462 10.9141 22.1997 10.9141Z" fill="white"/>
</g>
</svg>
