<svg width="52" height="44" viewBox="0 0 52 44" fill="none" xmlns="http://www.w3.org/2000/svg">
<path opacity="0.4" d="M50.5367 1.35657C49.9182 0.59855 48.9918 0.181213 47.9279 0.181213C47.3495 0.181213 46.7368 0.303162 46.1071 0.54435L3.24386 16.9409C0.969149 17.8108 0.66279 19.1162 0.682493 19.8169C0.702196 20.5176 1.08196 21.8037 3.40225 22.5435C3.41616 22.5478 3.43007 22.5521 3.44397 22.5559L12.335 25.1056L17.1432 38.8839C17.7988 40.7623 19.2703 41.9292 20.9841 41.9292C22.0647 41.9292 23.1275 41.4754 24.0577 40.6175L29.5571 35.5433L37.5337 41.9795C37.5344 41.9803 37.5356 41.9807 37.5364 41.9814L37.6121 42.0426C37.619 42.048 37.6264 42.0538 37.6333 42.0592C38.52 42.7484 39.4877 43.1123 40.4331 43.1126H40.4335C42.2805 43.1126 43.7513 41.7426 44.1797 39.6226L51.2028 4.87141C51.4848 3.47654 51.2484 2.22841 50.5367 1.35657ZM15.3093 24.6213L32.4627 15.8398L21.7819 27.2128C21.6069 27.399 21.4828 27.6271 21.4218 27.8752L19.3623 36.2351L15.3093 24.6213ZM22.0477 38.4302C21.9766 38.4956 21.9051 38.5541 21.8336 38.6079L23.7444 30.8527L27.2202 33.6575L22.0477 38.4302ZM48.2949 4.28102L41.2718 39.0326C41.2042 39.3651 40.9882 40.139 40.4331 40.139C40.1588 40.139 39.8142 39.9892 39.4615 39.717L30.4229 32.4241C30.4217 32.423 30.4202 32.4218 30.4186 32.421L25.0406 28.0812L40.4864 11.6343C40.9809 11.1078 41.0257 10.3014 40.5926 9.72304C40.1592 9.14465 39.3738 8.9627 38.7313 9.29176L13.3271 22.2973L4.31515 19.7136L47.1652 3.32208C47.5272 3.18348 47.7799 3.15444 47.9279 3.15444C48.0187 3.15444 48.1801 3.16528 48.24 3.23923C48.3188 3.33563 48.4193 3.66431 48.2949 4.28102Z" fill="white"/>
</svg>
