<svg width="65" height="40" viewBox="0 0 65 40" fill="none" xmlns="http://www.w3.org/2000/svg">
<path opacity="0.4" fill-rule="evenodd" clip-rule="evenodd" d="M63.1983 4.05838C63.6718 2.54936 63.1983 1.45238 61.1033 1.45238H54.1373C52.3802 1.45238 51.5688 2.41291 51.0953 3.44033C51.0953 3.44033 47.5119 12.2162 42.5079 17.9058C40.8851 19.5513 40.1416 20.0998 39.2624 20.0998C38.7888 20.0998 38.1796 19.5513 38.1796 18.0436V3.98748C38.1796 2.20555 37.6396 1.38281 36.1511 1.38281H25.1961C24.1134 1.38281 23.4376 2.20555 23.4376 3.02829C23.4376 4.74199 25.9396 5.15403 26.2097 9.95266V20.3794C26.2097 22.6416 25.8106 23.0549 24.9247 23.0549C22.5584 23.0549 16.8109 14.2108 13.3632 4.1333C12.6928 2.13732 12.0117 1.38281 10.2533 1.38281H3.22082C1.19235 1.38281 0.854492 2.342 0.854492 3.37076C0.854492 5.22226 3.22082 14.5453 11.8761 26.885C17.6236 35.3131 25.8053 39.8428 33.1756 39.8428C37.6396 39.8428 38.1796 38.814 38.1796 37.1003V30.7245C38.1796 28.6683 38.5853 28.3258 40.0059 28.3258C41.0195 28.3258 42.8458 28.873 46.9705 32.9184C51.7032 37.7171 52.5146 39.911 55.1522 39.911H62.1169C64.1453 39.911 65.0924 38.8823 64.551 36.8943C63.9431 34.9064 61.6433 32.0275 58.6678 28.6001C57.045 26.6817 54.6109 24.5559 53.8673 23.5272C52.8537 22.1559 53.1238 21.6074 53.8673 20.374C53.7995 20.374 62.3204 8.17074 63.1983 4.05303" fill="white"/>
</svg>
